<mxfile host="Electron" agent="Mozilla/5.0 (Windows NT 10.0; Win64; x64) AppleWebKit/537.36 (KHTML, like Gecko) draw.io/24.7.8 Chrome/128.0.6613.36 Electron/32.0.1 Safari/537.36" version="24.7.8">
  <diagram name="Pagina-1" id="f8DElW83291utPv9S6O0">
    <mxGraphModel dx="2391" dy="1194" grid="1" gridSize="10" guides="1" tooltips="1" connect="1" arrows="1" fold="1" page="1" pageScale="1" pageWidth="827" pageHeight="1169" math="0" shadow="0">
      <root>
        <mxCell id="0" />
        <mxCell id="1" parent="0" />
        <mxCell id="PLUFHSTD39UYiwxeZ5gk-1" value="" style="strokeWidth=1;shadow=0;dashed=0;align=center;html=1;shape=mxgraph.mockup.containers.browserWindow;rSize=0;strokeColor=#666666;strokeColor2=#008cff;strokeColor3=#c4c4c4;mainText=,;recursiveResize=0;" parent="1" vertex="1">
          <mxGeometry x="190" y="60" width="1160" height="810" as="geometry" />
        </mxCell>
        <mxCell id="PLUFHSTD39UYiwxeZ5gk-2" value="Page 1" style="strokeWidth=1;shadow=0;dashed=0;align=center;html=1;shape=mxgraph.mockup.containers.anchor;fontSize=17;fontColor=#666666;align=left;whiteSpace=wrap;" parent="PLUFHSTD39UYiwxeZ5gk-1" vertex="1">
          <mxGeometry x="60" y="12" width="110" height="26" as="geometry" />
        </mxCell>
        <mxCell id="PLUFHSTD39UYiwxeZ5gk-3" value="https://www.mypersonaldriver/documents.it" style="strokeWidth=1;shadow=0;dashed=0;align=center;html=1;shape=mxgraph.mockup.containers.anchor;rSize=0;fontSize=17;fontColor=#666666;align=left;" parent="PLUFHSTD39UYiwxeZ5gk-1" vertex="1">
          <mxGeometry x="130" y="60" width="250" height="26" as="geometry" />
        </mxCell>
        <mxCell id="PLUFHSTD39UYiwxeZ5gk-55" value="" style="line;strokeWidth=4;html=1;perimeter=backbonePerimeter;points=[];outlineConnect=0;" parent="PLUFHSTD39UYiwxeZ5gk-1" vertex="1">
          <mxGeometry y="190" width="1160" height="10" as="geometry" />
        </mxCell>
        <mxCell id="PLUFHSTD39UYiwxeZ5gk-58" value="" style="shape=mxgraph.signs.transportation.car_4;html=1;pointerEvents=1;fillColor=#000000;strokeColor=none;verticalLabelPosition=bottom;verticalAlign=top;align=center;" parent="PLUFHSTD39UYiwxeZ5gk-1" vertex="1">
          <mxGeometry x="545" y="120" width="70" height="60" as="geometry" />
        </mxCell>
        <mxCell id="PLUFHSTD39UYiwxeZ5gk-60" value="" style="line;strokeWidth=4;html=1;perimeter=backbonePerimeter;points=[];outlineConnect=0;" parent="PLUFHSTD39UYiwxeZ5gk-1" vertex="1">
          <mxGeometry y="660" width="1160" height="10" as="geometry" />
        </mxCell>
        <mxCell id="PLUFHSTD39UYiwxeZ5gk-61" value="About us" style="strokeWidth=1;shadow=0;dashed=0;align=center;html=1;shape=mxgraph.mockup.buttons.button;strokeColor=#666666;fontColor=#ffffff;mainText=;buttonStyle=round;fontSize=17;fontStyle=1;fillColor=#008cff;whiteSpace=wrap;" parent="PLUFHSTD39UYiwxeZ5gk-1" vertex="1">
          <mxGeometry x="505" y="680" width="150" height="50" as="geometry" />
        </mxCell>
        <mxCell id="S21XMWnKO8VSYDN829C3-1" value="Email" style="strokeWidth=1;shadow=0;dashed=0;align=center;html=1;shape=mxgraph.mockup.text.textBox;fontColor=#666666;align=left;fontSize=17;spacingLeft=4;spacingTop=-3;whiteSpace=wrap;strokeColor=#666666;mainText=" parent="PLUFHSTD39UYiwxeZ5gk-1" vertex="1">
          <mxGeometry x="505" y="260" width="150" height="30" as="geometry" />
        </mxCell>
        <mxCell id="S21XMWnKO8VSYDN829C3-3" value="New Password" style="strokeWidth=1;shadow=0;dashed=0;align=center;html=1;shape=mxgraph.mockup.text.textBox;fontColor=#666666;align=left;fontSize=17;spacingLeft=4;spacingTop=-3;whiteSpace=wrap;strokeColor=#666666;mainText=" parent="PLUFHSTD39UYiwxeZ5gk-1" vertex="1">
          <mxGeometry x="505" y="300" width="150" height="30" as="geometry" />
        </mxCell>
        <mxCell id="S21XMWnKO8VSYDN829C3-2" value="Confirm Password" style="strokeWidth=1;shadow=0;dashed=0;align=center;html=1;shape=mxgraph.mockup.text.textBox;fontColor=#666666;align=left;fontSize=17;spacingLeft=4;spacingTop=-3;whiteSpace=wrap;strokeColor=#666666;mainText=" parent="PLUFHSTD39UYiwxeZ5gk-1" vertex="1">
          <mxGeometry x="505" y="340" width="150" height="30" as="geometry" />
        </mxCell>
        <mxCell id="S21XMWnKO8VSYDN829C3-65" value="" style="html=1;verticalLabelPosition=bottom;align=center;labelBackgroundColor=#ffffff;verticalAlign=top;strokeWidth=2;strokeColor=#0080F0;shadow=0;dashed=0;shape=mxgraph.ios7.icons.eye;" parent="PLUFHSTD39UYiwxeZ5gk-1" vertex="1">
          <mxGeometry x="665" y="307.95" width="25" height="14.1" as="geometry" />
        </mxCell>
        <mxCell id="S21XMWnKO8VSYDN829C3-66" value="Change Passord" style="rounded=1;fillColor=#0057D8;align=center;strokeColor=none;html=1;whiteSpace=wrap;fontColor=#ffffff;fontSize=12;sketch=0;" parent="PLUFHSTD39UYiwxeZ5gk-1" vertex="1">
          <mxGeometry x="537" y="416" width="86" height="33" as="geometry" />
        </mxCell>
        <mxCell id="S21XMWnKO8VSYDN829C3-67" value="" style="html=1;shadow=0;dashed=0;shape=mxgraph.atlassian.checkbox;fillColor=#008465;strokeColor=none;html=1;sketch=0;" parent="PLUFHSTD39UYiwxeZ5gk-1" vertex="1">
          <mxGeometry x="510" y="425.5" width="14" height="14" as="geometry" />
        </mxCell>
        <mxCell id="S21XMWnKO8VSYDN829C3-73" value="" style="html=1;verticalLabelPosition=bottom;align=center;labelBackgroundColor=#ffffff;verticalAlign=top;strokeWidth=2;strokeColor=#0080F0;shadow=0;dashed=0;shape=mxgraph.ios7.icons.eye;" parent="PLUFHSTD39UYiwxeZ5gk-1" vertex="1">
          <mxGeometry x="665" y="347.95" width="25" height="14.1" as="geometry" />
        </mxCell>
        <mxCell id="S21XMWnKO8VSYDN829C3-86" value="" style="html=1;shadow=0;dashed=0;align=center;verticalAlign=middle;shape=mxgraph.arrows2.arrow;dy=0.6;dx=40;flipH=1;notch=0;" parent="PLUFHSTD39UYiwxeZ5gk-1" vertex="1">
          <mxGeometry x="60" y="130" width="60" height="40" as="geometry" />
        </mxCell>
        <mxCell id="S21XMWnKO8VSYDN829C3-70" value="Submit" style="rounded=1;fillColor=#0057D8;align=center;strokeColor=none;html=1;whiteSpace=wrap;fontColor=#ffffff;fontSize=12;sketch=0;" parent="1" vertex="1">
          <mxGeometry x="1402.5" y="600" width="80" height="33" as="geometry" />
        </mxCell>
        <mxCell id="S21XMWnKO8VSYDN829C3-71" value="" style="html=1;shadow=0;dashed=0;shape=mxgraph.atlassian.close;fillColor=#BA3200;strokeColor=none;html=1;sketch=0;" parent="1" vertex="1">
          <mxGeometry x="1377.5" y="609" width="14" height="14" as="geometry" />
        </mxCell>
        <mxCell id="S21XMWnKO8VSYDN829C3-72" value="Until format is correct&lt;br&gt;and passwords are equal" style="text;html=1;align=center;verticalAlign=middle;whiteSpace=wrap;rounded=0;" parent="1" vertex="1">
          <mxGeometry x="1382.5" y="555" width="120" height="30" as="geometry" />
        </mxCell>
        <mxCell id="S21XMWnKO8VSYDN829C3-74" value="&lt;h1 style=&quot;margin-top: 0px;&quot;&gt;&lt;span style=&quot;background-color: initial; font-size: 12px; font-weight: normal;&quot;&gt;On click Change Password&lt;/span&gt;&lt;/h1&gt;&lt;h1 style=&quot;margin-top: 0px;&quot;&gt;&lt;br&gt;&lt;/h1&gt;" style="text;html=1;whiteSpace=wrap;overflow=hidden;rounded=0;" parent="1" vertex="1">
          <mxGeometry x="1405" y="250" width="180" height="40" as="geometry" />
        </mxCell>
        <mxCell id="S21XMWnKO8VSYDN829C3-75" value="Open your email and click on the confirmation link to change your password." style="strokeWidth=1;shadow=0;dashed=0;align=center;html=1;shape=mxgraph.mockup.containers.rrect;rSize=0;strokeColor=#666666;fontColor=#666666;fontSize=17;verticalAlign=top;whiteSpace=wrap;fillColor=#ffffff;spacingTop=32;" parent="1" vertex="1">
          <mxGeometry x="1370" y="290" width="250" height="160" as="geometry" />
        </mxCell>
        <mxCell id="S21XMWnKO8VSYDN829C3-76" value="Confirm password modification" style="strokeWidth=1;shadow=0;dashed=0;align=center;html=1;shape=mxgraph.mockup.containers.rrect;rSize=0;fontSize=17;fontColor=#666666;strokeColor=#666666;align=left;spacingLeft=8;fillColor=#ffffff;resizeWidth=1;whiteSpace=wrap;" parent="S21XMWnKO8VSYDN829C3-75" vertex="1">
          <mxGeometry width="250" height="30" relative="1" as="geometry" />
        </mxCell>
        <mxCell id="S21XMWnKO8VSYDN829C3-77" value="" style="shape=ellipse;strokeColor=#008cff;resizable=0;fillColor=none;html=1;" parent="S21XMWnKO8VSYDN829C3-76" vertex="1">
          <mxGeometry x="1" y="0.5" width="20" height="20" relative="1" as="geometry">
            <mxPoint x="-25" y="-10" as="offset" />
          </mxGeometry>
        </mxCell>
        <mxCell id="S21XMWnKO8VSYDN829C3-78" value="OK" style="strokeWidth=1;shadow=0;dashed=0;align=center;html=1;shape=mxgraph.mockup.containers.rrect;rSize=0;fontSize=16;fontColor=#666666;strokeColor=#c4c4c4;resizable=0;whiteSpace=wrap;fillColor=#ffffff;" parent="S21XMWnKO8VSYDN829C3-75" vertex="1">
          <mxGeometry x="0.5" y="1" width="120" height="25" relative="1" as="geometry">
            <mxPoint x="-60" y="-33" as="offset" />
          </mxGeometry>
        </mxCell>
        <mxCell id="S21XMWnKO8VSYDN829C3-87" value="" style="html=1;shadow=0;dashed=0;align=center;verticalAlign=middle;shape=mxgraph.arrows2.arrow;dy=0.6;dx=40;flipH=1;notch=0;" parent="1" vertex="1">
          <mxGeometry x="1450" y="70" width="60" height="40" as="geometry" />
        </mxCell>
        <mxCell id="S21XMWnKO8VSYDN829C3-88" value="On Click back to login" style="text;html=1;align=center;verticalAlign=middle;whiteSpace=wrap;rounded=0;" parent="1" vertex="1">
          <mxGeometry x="1460" y="120" width="60" height="30" as="geometry" />
        </mxCell>
        <mxCell id="S21XMWnKO8VSYDN829C3-104" value="" style="html=1;verticalLabelPosition=bottom;align=center;labelBackgroundColor=#ffffff;verticalAlign=top;strokeWidth=2;strokeColor=#0080F0;shadow=0;dashed=0;shape=mxgraph.ios7.icons.eye;" parent="1" vertex="1">
          <mxGeometry x="1440" y="730" width="25" height="14.1" as="geometry" />
        </mxCell>
        <mxCell id="S21XMWnKO8VSYDN829C3-105" value="OnClick view password" style="text;html=1;align=center;verticalAlign=middle;whiteSpace=wrap;rounded=0;" parent="1" vertex="1">
          <mxGeometry x="1422.5" y="760" width="60" height="30" as="geometry" />
        </mxCell>
        <mxCell id="4-P4ZkqdesA4CDC57rtO-1" value="&lt;font style=&quot;font-size: 24px;&quot;&gt;Use Case xxx&lt;/font&gt;" style="text;html=1;align=center;verticalAlign=middle;whiteSpace=wrap;rounded=0;" parent="1" vertex="1">
          <mxGeometry x="660" y="10" width="240" height="30" as="geometry" />
        </mxCell>
        <mxCell id="VDN3eKHUVwqNKnqhu4YB-1" value="Text" style="text;html=1;align=center;verticalAlign=middle;whiteSpace=wrap;rounded=0;" vertex="1" parent="1">
          <mxGeometry x="800" y="480" width="60" height="30" as="geometry" />
        </mxCell>
        <mxCell id="VDN3eKHUVwqNKnqhu4YB-2" value="On click ok chiama :&lt;br&gt;POST accounts/resetpassword" style="text;html=1;align=center;verticalAlign=middle;whiteSpace=wrap;rounded=0;" vertex="1" parent="1">
          <mxGeometry x="1382.5" y="470" width="210" height="30" as="geometry" />
        </mxCell>
      </root>
    </mxGraphModel>
  </diagram>
</mxfile>
